<mxfile host="app.diagrams.net" modified="2024-05-24T13:15:32.661Z" agent="Mozilla/5.0 (Windows NT 10.0; Win64; x64) AppleWebKit/537.36 (KHTML, like Gecko) Chrome/125.0.0.0 Safari/537.36" etag="Uhe-aCAwjf8EnZ72lyiW" version="24.4.7" type="github">
  <diagram name="Page-1" id="KYUkMzLAdZubMLOFAHTG">
    <mxGraphModel dx="1728" dy="915" grid="1" gridSize="10" guides="1" tooltips="1" connect="1" arrows="1" fold="1" page="1" pageScale="1" pageWidth="850" pageHeight="1100" math="0" shadow="0">
      <root>
        <mxCell id="0" />
        <mxCell id="1" parent="0" />
        <mxCell id="3tO4vaQG3SSgyUQpK7Y9-7" style="edgeStyle=orthogonalEdgeStyle;rounded=0;orthogonalLoop=1;jettySize=auto;html=1;exitX=1;exitY=0.25;exitDx=0;exitDy=0;entryX=0;entryY=0.25;entryDx=0;entryDy=0;" edge="1" parent="1" source="3tO4vaQG3SSgyUQpK7Y9-1" target="3tO4vaQG3SSgyUQpK7Y9-2">
          <mxGeometry relative="1" as="geometry" />
        </mxCell>
        <mxCell id="3tO4vaQG3SSgyUQpK7Y9-1" value="Entrypoint Node" style="whiteSpace=wrap;html=1;aspect=fixed;" vertex="1" parent="1">
          <mxGeometry x="60" y="180" width="170" height="170" as="geometry" />
        </mxCell>
        <mxCell id="3tO4vaQG3SSgyUQpK7Y9-5" style="edgeStyle=orthogonalEdgeStyle;rounded=0;orthogonalLoop=1;jettySize=auto;html=1;exitX=0;exitY=0.5;exitDx=0;exitDy=0;entryX=1;entryY=0.5;entryDx=0;entryDy=0;" edge="1" parent="1" source="3tO4vaQG3SSgyUQpK7Y9-2" target="3tO4vaQG3SSgyUQpK7Y9-1">
          <mxGeometry relative="1" as="geometry" />
        </mxCell>
        <mxCell id="3tO4vaQG3SSgyUQpK7Y9-2" value="Worker Node" style="whiteSpace=wrap;html=1;aspect=fixed;" vertex="1" parent="1">
          <mxGeometry x="610" y="160" width="170" height="170" as="geometry" />
        </mxCell>
        <mxCell id="3tO4vaQG3SSgyUQpK7Y9-3" value="Evaluation" style="text;html=1;align=center;verticalAlign=middle;whiteSpace=wrap;rounded=0;" vertex="1" parent="1">
          <mxGeometry x="620" y="50" width="60" height="30" as="geometry" />
        </mxCell>
        <mxCell id="3tO4vaQG3SSgyUQpK7Y9-4" value="Execution" style="text;html=1;align=center;verticalAlign=middle;whiteSpace=wrap;rounded=0;" vertex="1" parent="1">
          <mxGeometry x="620" y="90" width="60" height="30" as="geometry" />
        </mxCell>
        <mxCell id="3tO4vaQG3SSgyUQpK7Y9-6" value="Build Events" style="text;html=1;align=center;verticalAlign=middle;whiteSpace=wrap;rounded=0;" vertex="1" parent="1">
          <mxGeometry x="390" y="270" width="60" height="30" as="geometry" />
        </mxCell>
        <mxCell id="3tO4vaQG3SSgyUQpK7Y9-8" value="BuildRequest (.csrproj and stuff)" style="text;html=1;align=center;verticalAlign=middle;whiteSpace=wrap;rounded=0;" vertex="1" parent="1">
          <mxGeometry x="350" y="160" width="100" height="30" as="geometry" />
        </mxCell>
        <mxCell id="3tO4vaQG3SSgyUQpK7Y9-9" value=".editorconfig" style="whiteSpace=wrap;html=1;shape=mxgraph.basic.document" vertex="1" parent="1">
          <mxGeometry x="700" y="370" width="100" height="100" as="geometry" />
        </mxCell>
        <mxCell id="3tO4vaQG3SSgyUQpK7Y9-10" value=".csproj&lt;div&gt;&lt;br&gt;&lt;/div&gt;&lt;div&gt;&amp;lt;PackageReference Include=&quot;MyAnalyzer&quot;&amp;gt;&lt;/div&gt;" style="whiteSpace=wrap;html=1;shape=mxgraph.basic.document" vertex="1" parent="1">
          <mxGeometry x="450" y="400" width="210" height="190" as="geometry" />
        </mxCell>
        <mxCell id="3tO4vaQG3SSgyUQpK7Y9-11" value="BuildCheckConnectorLogger" style="whiteSpace=wrap;html=1;aspect=fixed;" vertex="1" parent="1">
          <mxGeometry x="150" y="360" width="160" height="160" as="geometry" />
        </mxCell>
        <mxCell id="3tO4vaQG3SSgyUQpK7Y9-12" value="BuildCheck" style="whiteSpace=wrap;html=1;aspect=fixed;" vertex="1" parent="1">
          <mxGeometry x="120" y="650" width="80" height="80" as="geometry" />
        </mxCell>
        <mxCell id="3tO4vaQG3SSgyUQpK7Y9-13" value="BuildCheck" style="whiteSpace=wrap;html=1;aspect=fixed;" vertex="1" parent="1">
          <mxGeometry x="130" y="660" width="80" height="80" as="geometry" />
        </mxCell>
        <mxCell id="3tO4vaQG3SSgyUQpK7Y9-14" value="BuildCheck" style="whiteSpace=wrap;html=1;aspect=fixed;" vertex="1" parent="1">
          <mxGeometry x="140" y="670" width="80" height="80" as="geometry" />
        </mxCell>
        <mxCell id="3tO4vaQG3SSgyUQpK7Y9-15" style="edgeStyle=orthogonalEdgeStyle;rounded=0;orthogonalLoop=1;jettySize=auto;html=1;entryX=0.613;entryY=0.013;entryDx=0;entryDy=0;entryPerimeter=0;" edge="1" parent="1" source="3tO4vaQG3SSgyUQpK7Y9-11" target="3tO4vaQG3SSgyUQpK7Y9-12">
          <mxGeometry relative="1" as="geometry" />
        </mxCell>
        <mxCell id="3tO4vaQG3SSgyUQpK7Y9-16" value="Creates and pumps data" style="text;html=1;align=center;verticalAlign=middle;whiteSpace=wrap;rounded=0;" vertex="1" parent="1">
          <mxGeometry x="230" y="560" width="90" height="50" as="geometry" />
        </mxCell>
        <mxCell id="3tO4vaQG3SSgyUQpK7Y9-18" value="&lt;b&gt;/analyze&lt;/b&gt;" style="text;html=1;align=center;verticalAlign=middle;whiteSpace=wrap;rounded=0;" vertex="1" parent="1">
          <mxGeometry x="340" y="40" width="100" height="30" as="geometry" />
        </mxCell>
        <mxCell id="3tO4vaQG3SSgyUQpK7Y9-20" value="Build-in - only configured in .editorconfig&lt;div&gt;Custom - Declared via PackageReference, configured via .editorconfig&lt;/div&gt;" style="text;html=1;align=left;verticalAlign=middle;whiteSpace=wrap;rounded=0;" vertex="1" parent="1">
          <mxGeometry x="420" y="685" width="310" height="235" as="geometry" />
        </mxCell>
        <mxCell id="3tO4vaQG3SSgyUQpK7Y9-22" style="edgeStyle=orthogonalEdgeStyle;rounded=0;orthogonalLoop=1;jettySize=auto;html=1;entryX=1;entryY=0.5;entryDx=0;entryDy=0;" edge="1" parent="1" source="3tO4vaQG3SSgyUQpK7Y9-21" target="3tO4vaQG3SSgyUQpK7Y9-11">
          <mxGeometry relative="1" as="geometry" />
        </mxCell>
        <mxCell id="3tO4vaQG3SSgyUQpK7Y9-21" value="BuildCheck&lt;br&gt;ForwardingLogger" style="whiteSpace=wrap;html=1;aspect=fixed;" vertex="1" parent="1">
          <mxGeometry x="530" y="270" width="110" height="110" as="geometry" />
        </mxCell>
      </root>
    </mxGraphModel>
  </diagram>
</mxfile>
